<?xml version="1.0" standalone="no"?>
<!DOCTYPE svg PUBLIC "-//W3C//DTD SVG 20010904//EN"
 "http://www.w3.org/TR/2001/REC-SVG-20010904/DTD/svg10.dtd">
<svg version="1.0" xmlns="http://www.w3.org/2000/svg"
 width="1280.000000pt" height="1170.000000pt" viewBox="0 0 1280.000000 1170.000000"
 preserveAspectRatio="xMidYMid meet">
<metadata>
Created by potrace 1.15, written by Peter Selinger 2001-2017
</metadata>
<g transform="translate(0.000000,1170.000000) scale(0.100000,-0.100000)"
fill="#000000" stroke="none">
<path d="M6414 11681 c-39 -24 -64 -85 -64 -158 l0 -56 -57 6 c-32 3 -159 9
-283 13 -260 8 -274 6 -500 -68 l-155 -51 -275 -8 c-462 -13 -766 -62 -1230
-201 -929 -276 -2014 -944 -2840 -1746 -115 -112 -129 -129 -97 -116 66 26 97
-3 84 -79 -18 -111 -372 -558 -869 -1099 -117 -127 -149 -202 -119 -281 12
-30 49 -67 68 -67 20 0 87 65 108 104 11 20 22 36 25 36 3 0 16 -17 30 -37 40
-60 161 -182 205 -208 25 -15 147 -50 325 -94 981 -241 1484 -438 2206 -862
83 -49 161 -89 173 -89 30 0 45 39 66 175 36 236 62 239 262 31 85 -89 122
-121 164 -140 155 -68 375 -63 1065 23 572 72 1011 97 1479 86 160 -3 300 -9
312 -12 29 -7 28 7 53 -763 11 -360 25 -774 30 -920 6 -146 19 -535 30 -865
11 -330 29 -861 40 -1180 11 -319 29 -843 40 -1165 32 -963 40 -1193 50 -1445
l9 -239 46 -94 c51 -103 82 -130 113 -98 32 32 27 617 -18 1891 -24 661 -63
1648 -100 2515 -5 124 -14 338 -20 475 -6 138 -15 351 -20 475 -5 124 -14 335
-20 470 -18 421 -29 670 -36 803 l-7 127 34 0 c125 0 572 -51 1016 -116 410
-59 513 -70 566 -60 64 12 117 72 191 216 92 178 143 233 210 226 36 -4 40 -9
76 -96 64 -156 113 -195 245 -193 107 1 198 31 460 153 256 119 392 173 640
256 398 132 835 234 1240 288 220 30 325 38 576 45 l256 6 42 30 c151 104 366
418 430 629 25 81 27 175 5 217 -22 43 -20 128 5 184 11 25 43 78 71 118 27
41 50 83 50 94 0 95 -67 357 -119 463 -34 72 -41 79 -151 161 -200 149 -526
377 -801 560 -929 619 -1721 999 -2409 1153 -123 27 -371 70 -610 106 -444 65
-722 131 -843 200 -75 42 -177 50 -754 57 l-483 6 0 71 c0 68 -2 74 -32 103
-58 55 -128 68 -184 34z"/>
</g>
</svg>
